<svg width="315" height="43" viewBox="0 0 315 43" fill="none" xmlns="http://www.w3.org/2000/svg">
<path d="M11.8128 20.3725C12.2866 21.7314 12.8515 23.0792 13.4942 24.387L9.25072 26.1773C8.93935 25.8593 8.6302 25.5413 8.32772 25.2232C7.04443 23.871 5.84343 22.4898 4.76031 21.1131C3.8173 19.9188 2.94546 18.7045 2.17371 17.5124C1.97354 17.2032 1.76893 16.8785 1.57099 16.5538L0.263233 14.4076C-0.18603 13.6758 0.0386013 13.2377 0.214303 13.042C0.387781 12.8485 0.794785 12.5794 1.57544 12.9419L3.85289 14.0028C4.20429 14.1673 4.54902 14.3342 4.87374 14.4987C6.14146 15.1304 7.44254 15.8621 8.73695 16.6694C9.53762 17.1676 10.345 17.697 11.1523 18.2596C11.2457 18.6044 11.348 18.9469 11.457 19.2916V19.2938C11.5059 19.4606 11.5593 19.6252 11.6127 19.7854C11.6772 19.9811 11.7439 20.1768 11.8128 20.3725Z" fill="#000958"/>
<path d="M54.2837 14.4076L52.9759 16.556C52.7758 16.883 52.5711 17.2077 52.371 17.5146C51.6014 18.7023 50.7296 19.9144 49.7844 21.1154C48.7013 22.4921 47.5025 23.8732 46.217 25.2232C45.9123 25.5457 45.6009 25.866 45.2851 26.1863L41.0482 24.3959C41.6932 23.0859 42.2581 21.7359 42.7341 20.3725C42.803 20.1768 42.8697 19.9811 42.9342 19.7854C42.9876 19.6208 43.041 19.4584 43.0899 19.2939C43.0899 19.2939 43.0921 19.2939 43.0921 19.2916V19.2872C43.1989 18.9469 43.3012 18.6022 43.3946 18.2574C44.202 17.697 45.0093 17.1654 45.81 16.6672C47.1044 15.8621 48.4055 15.1304 49.6754 14.4988C50.0001 14.3319 50.3426 14.1651 50.694 14.0028L52.9715 12.9419C53.7366 12.5838 54.1436 12.8596 54.3193 13.0553C54.495 13.251 54.724 13.687 54.2837 14.4076Z" fill="#000958"/>
<path d="M17.9691 14.5432C17.5465 16.3403 17.333 18.1885 17.333 20.0345C17.333 20.9263 17.3842 21.8182 17.4843 22.7034L14.7264 23.8666C14.4106 23.2327 14.1148 22.5877 13.8434 21.9383C13.67 21.5268 13.5032 21.1154 13.3475 20.6995C13.3297 20.6528 13.3141 20.6061 13.2963 20.5594C13.0495 19.8877 12.6158 19.2961 12.0308 18.8802C12.0286 18.878 12.0242 18.8757 12.0219 18.8735C11.7328 18.6644 11.4437 18.4576 11.1523 18.2574C10.7876 16.9541 10.5073 15.6375 10.3161 14.3297C10.0759 12.7506 9.96244 11.1604 9.97578 9.60357C9.97578 9.20768 9.98913 8.78511 10.0114 8.35364L10.1537 5.58022C10.1826 4.99084 10.4517 4.52379 10.8899 4.30138C11.3258 4.07897 11.8618 4.13457 12.3578 4.45929L14.6864 5.97388C15.0444 6.20296 15.3936 6.44094 15.7206 6.67891C16.9861 7.57966 18.2049 8.60718 19.3436 9.72812C19.4148 9.79929 19.4837 9.86823 19.5526 9.93718C19.4526 10.1574 19.3569 10.3731 19.2635 10.5911V10.5933C19.1679 10.8157 19.0767 11.0403 18.99 11.2694C18.5696 12.3414 18.2293 13.4334 17.9691 14.5432Z" fill="#000958"/>
<path d="M20.7024 32.3447C19.775 31.3972 18.8965 30.3742 18.0758 29.291L19.0277 28.8996C19.3102 29.618 19.6282 30.3252 19.9796 31.0125C20.2042 31.4617 20.4444 31.9043 20.7024 32.3447Z" fill="#000958"/>
<path d="M36.4666 29.2977C35.6482 30.3786 34.7719 31.3972 33.8467 32.3403C34.1024 31.9043 34.3404 31.4617 34.5651 31.0147C34.9165 30.3252 35.2345 29.6224 35.517 28.9063L36.4666 29.2977Z" fill="#000958"/>
<path d="M40.1898 30.8301C39.5248 31.375 38.8531 31.9043 38.1792 32.4159C36.6935 33.5435 35.1856 34.5843 33.6955 35.5051C32.4033 36.3102 31.1022 37.0442 29.8323 37.678C29.5009 37.8448 29.1584 38.0094 28.8114 38.1718C28.4289 38.3519 28.0975 38.4631 27.8084 38.5187C27.666 38.5654 27.4992 38.5943 27.3035 38.5943C26.9076 38.5943 26.3961 38.4787 25.7333 38.1718C25.3863 38.0094 25.0416 37.8426 24.7125 37.6758C23.4447 37.0442 22.1436 36.3102 20.8492 35.5051C19.3636 34.5843 17.8534 33.5435 16.3677 32.4159C15.6894 31.9021 15.0155 31.3706 14.3483 30.8234L16.8014 29.8137C17.0861 30.1985 17.3797 30.5788 17.6777 30.948C18.7631 32.2935 20.0641 33.4501 21.5342 34.3597C21.5409 34.3642 21.5476 34.3664 21.5543 34.3708C21.8256 34.5421 22.0969 34.7089 22.3683 34.8668C22.3282 34.8112 22.286 34.7556 22.246 34.7C21.6855 33.9371 21.1673 33.152 20.7024 32.3447C20.8492 32.4915 20.996 32.6383 21.1428 32.7828C21.6588 33.2922 22.1904 33.7792 22.7375 34.2418C23.3446 34.7578 23.9696 35.2449 24.6079 35.7008C24.7903 35.8343 24.9816 35.9655 25.1751 36.0945C25.1706 36.0856 25.1684 36.0789 25.1662 36.0723C24.9927 35.9344 24.8303 35.7809 24.6835 35.6141C24.3766 35.2605 24.0875 34.9113 23.8228 34.571C22.7886 33.2543 21.8968 31.8576 21.1695 30.412C20.8337 29.7537 20.5312 29.0798 20.2621 28.3925L22.5351 27.4584C23.1156 27.2227 23.6115 26.8179 23.9652 26.2908C24.4589 25.5546 24.6235 24.6472 24.41 23.7576C24.0919 22.4342 22.9176 21.4579 21.5609 21.3578C21.0583 21.3222 20.5645 21.4023 20.0975 21.6002L18.7697 22.1607C18.7008 21.4534 18.6674 20.7439 18.6674 20.0345C18.6674 18.293 18.8698 16.5449 19.2679 14.8479C19.4636 14.0117 19.7105 13.1821 20.0019 12.3703C20.0864 12.1301 20.1753 11.8966 20.2687 11.663C20.2732 11.6497 20.2799 11.6341 20.2843 11.6208C20.44 11.2205 20.3599 10.7667 20.0597 10.4598C20.0597 10.4576 20.0575 10.4554 20.0552 10.4531C20.0552 10.4531 20.0552 10.4531 20.053 10.4531C19.8907 10.2774 19.7216 10.1062 19.5526 9.93938C19.6883 9.64136 19.8306 9.34778 19.9796 9.0542C20.7447 7.53516 21.6855 6.0606 22.7731 4.675C23.0488 4.3236 23.3535 3.94996 23.6805 3.57854L26.4828 0.360302C26.683 0.128999 26.9699 0 27.2724 0C27.5771 0 27.864 0.128999 28.0641 0.360302L30.8687 3.57854C31.1912 3.94996 31.4981 4.3236 31.7761 4.67945C32.8615 6.0606 33.8022 7.53516 34.5673 9.05643C34.7163 9.34778 34.8587 9.64581 34.9943 9.94161C34.8231 10.1084 34.6563 10.2797 34.4939 10.4531C34.4917 10.4531 34.4917 10.4531 34.4917 10.4531C34.4895 10.4554 34.4872 10.4576 34.4872 10.4598C34.187 10.7667 34.1069 11.2205 34.2626 11.6208C34.2671 11.6341 34.2737 11.6497 34.2782 11.663C34.3716 11.8966 34.4606 12.1301 34.5451 12.3703C34.8387 13.1821 35.0811 14.0117 35.279 14.8479C35.6771 16.5449 35.8795 18.293 35.8795 20.0345C35.8795 20.7462 35.8462 21.4579 35.7772 22.1673L34.4383 21.6024C33.9401 21.3934 33.413 21.3133 32.877 21.3689C31.467 21.5135 30.2949 22.6099 30.0725 24.0089C29.8367 25.5034 30.6463 26.9024 31.9985 27.4584L34.2826 28.3992C34.0135 29.0842 33.711 29.7559 33.3752 30.4142C32.6502 31.8576 31.7583 33.2543 30.7219 34.5732C30.4595 34.9113 30.1703 35.2605 29.8612 35.6141C29.7188 35.7787 29.5654 35.9232 29.3986 36.0567C29.3941 36.0656 29.3919 36.0745 29.3897 36.0856C29.5787 35.9588 29.7611 35.8298 29.9368 35.7031C30.5751 35.2493 31.2023 34.76 31.8095 34.2418C32.3566 33.7792 32.8881 33.2922 33.4019 32.7851C33.5509 32.6383 33.6999 32.4915 33.8467 32.3403C33.3797 33.1476 32.8637 33.9349 32.2988 34.7C32.261 34.7556 32.2187 34.8112 32.1764 34.8668C32.4478 34.7089 32.7191 34.5443 32.9905 34.3753C32.9971 34.3708 33.0038 34.3664 33.0105 34.3642C34.445 33.4745 35.7238 32.3536 36.7892 31.0458C37.1139 30.6455 37.4319 30.2385 37.7411 29.8204L40.1898 30.8301Z" fill="#000958"/>
<path d="M44.5712 9.61024C44.5846 11.1626 44.4712 12.7529 44.231 14.3319C44.0397 15.6397 43.7595 16.9519 43.3947 18.2574C43.1056 18.4598 42.8142 18.6622 42.5251 18.8713L42.5162 18.878C41.9424 19.2894 41.5065 19.8632 41.264 20.526C41.244 20.5838 41.2218 20.6416 41.1995 20.6995C41.0439 21.1154 40.8771 21.5268 40.7036 21.9383C40.43 22.5922 40.132 23.2371 39.814 23.8755L37.0628 22.7123C37.1629 21.8226 37.214 20.9308 37.214 20.0345C37.214 18.1885 37.0005 16.3403 36.5779 14.5432C36.3177 13.4312 35.9774 12.337 35.5571 11.2672C35.4703 11.0425 35.3792 10.8179 35.2835 10.5955C35.1901 10.3753 35.0945 10.1596 34.9944 9.94163C35.0611 9.87046 35.1345 9.80151 35.2057 9.73034C36.3422 8.6094 37.561 7.58188 38.8287 6.67891C39.1512 6.44761 39.5004 6.20741 39.8629 5.9761L42.1893 4.46151C42.6741 4.14347 43.2057 4.09454 43.6483 4.32139C44.0931 4.54602 44.3644 5.00641 44.3933 5.58244L44.5357 8.35808C44.5579 8.78288 44.5712 9.20323 44.5712 9.61024Z" fill="#000958"/>
<path d="M1.47083 33.4968V32.129C1.47083 31.3906 1.91342 30.7234 2.59398 30.4365L20.6134 22.8324C21.8255 22.3208 23.1667 23.2105 23.1667 24.5249C23.1667 25.27 22.7174 25.9416 22.0279 26.2241L10.0891 31.1282C8.57229 31.7509 8.57007 33.8994 10.0869 34.5266L22.0324 39.4618C22.7196 39.7465 23.1689 40.4159 23.1689 41.161C23.1689 42.4776 21.8233 43.3673 20.6112 42.8513L2.58953 35.1871C1.91119 34.9002 1.47083 34.233 1.47083 33.4968Z" fill="#000958"/>
<path d="M51.9441 35.1759L33.9246 42.8512C32.7125 43.3672 31.3669 42.4776 31.3669 41.1609C31.3669 40.4181 31.814 39.7464 32.5012 39.4617L44.4312 34.5265C45.9457 33.8993 45.9435 31.7531 44.4289 31.1281L32.5057 26.2218C31.8162 25.9394 31.3669 25.2677 31.3669 24.5226C31.3669 23.2082 32.7081 22.3186 33.9202 22.8301L51.9396 30.4431C52.6202 30.73 53.0628 31.3972 53.0628 32.1356V33.4834C53.0628 34.2218 52.6224 34.8868 51.9441 35.1759Z" fill="#000958"/>
<path d="M82.1921 23.7168L83.0666 26.7061H85.2885L81.1303 13.7139H79.2296L75 26.7061H77.2308L78.1142 23.7168H82.1921ZM78.6585 21.8786L80.1755 16.7388L81.6657 21.8786H78.6585Z" fill="#000958"/>
<path d="M93.2213 24.0916C93.2213 24.2463 93.1856 24.3891 93.1142 24.5199C93.0488 24.6449 92.9477 24.7609 92.8108 24.8679C92.6443 24.9988 92.4212 25.1029 92.1416 25.1803C91.8679 25.2576 91.5467 25.2963 91.1779 25.2963C90.9042 25.2963 90.6336 25.2695 90.3659 25.2159C90.0982 25.1565 89.8602 25.0613 89.652 24.9304C89.4378 24.8055 89.2594 24.6419 89.1166 24.4396C88.9798 24.2314 88.9024 23.9786 88.8846 23.6811H86.8144C86.8144 24.0797 86.9096 24.4723 87.0999 24.859C87.2903 25.2457 87.5699 25.5877 87.9387 25.8852C88.3016 26.1886 88.7507 26.4325 89.2861 26.6169C89.8275 26.8013 90.4462 26.8935 91.1422 26.8935C91.7668 26.8935 92.3349 26.8221 92.8465 26.6794C93.3581 26.5366 93.7983 26.3373 94.1672 26.0815C94.53 25.8257 94.8096 25.5193 95.0059 25.1624C95.2082 24.8055 95.3093 24.4128 95.3093 23.9845C95.3093 23.5443 95.2142 23.1636 95.0238 22.8424C94.8334 22.5211 94.5657 22.2415 94.2207 22.0036C93.8757 21.7775 93.4592 21.5872 92.9714 21.4325C92.4836 21.2778 91.9453 21.1469 91.3563 21.0399C90.934 20.9685 90.583 20.8882 90.3034 20.7989C90.0297 20.7097 89.8156 20.6115 89.6609 20.5045C89.4943 20.4033 89.3783 20.2873 89.3129 20.1565C89.2475 20.0196 89.2148 19.8679 89.2148 19.7014C89.2148 19.5407 89.2534 19.3891 89.3308 19.2463C89.4081 19.0976 89.5241 18.9697 89.6788 18.8626C89.8334 18.7436 90.0297 18.6514 90.2677 18.586C90.5116 18.5146 90.7942 18.4789 91.1154 18.4789C91.4664 18.4789 91.7728 18.5265 92.0345 18.6217C92.2963 18.7109 92.5104 18.8328 92.677 18.9875C92.8197 19.1184 92.9268 19.2671 92.9982 19.4337C93.0756 19.5943 93.1142 19.7638 93.1142 19.9423H95.2469C95.2469 19.508 95.1517 19.1035 94.9613 18.7287C94.771 18.354 94.5003 18.0297 94.1493 17.7561C93.7924 17.4825 93.3581 17.2683 92.8465 17.1136C92.3349 16.953 91.7579 16.8727 91.1154 16.8727C90.5146 16.8727 89.9673 16.95 89.4735 17.1047C88.9857 17.2594 88.5693 17.4706 88.2243 17.7383C87.8733 18.0059 87.6026 18.3183 87.4123 18.6752C87.2278 19.0262 87.1356 19.398 87.1356 19.7906C87.1356 20.2011 87.2278 20.561 87.4123 20.8703C87.5967 21.1797 87.8525 21.4474 88.1797 21.6734C88.5128 21.9114 88.9084 22.1136 89.3664 22.2802C89.8305 22.4468 90.3421 22.5866 90.9012 22.6996C91.3474 22.7829 91.7192 22.8721 92.0167 22.9673C92.3141 23.0625 92.555 23.1636 92.7394 23.2707C92.912 23.3896 93.0339 23.5146 93.1053 23.6454C93.1826 23.7763 93.2213 23.925 93.2213 24.0916Z" fill="#000958"/>
<path d="M113.174 21.6645L115.663 26.7061H117.957V26.5901L115.181 21.1559C115.538 20.9952 115.863 20.8049 116.154 20.5848C116.446 20.3647 116.695 20.1089 116.904 19.8174C117.112 19.5259 117.272 19.1987 117.385 18.8358C117.504 18.4729 117.564 18.0684 117.564 17.6222C117.564 16.9738 117.451 16.4087 117.225 15.9268C116.999 15.439 116.684 15.0315 116.279 14.7043C115.869 14.3831 115.381 14.1392 114.816 13.9726C114.25 13.8061 113.632 13.7198 112.96 13.7139H108.837V26.7061H110.979V21.6645H113.174ZM110.979 19.9155V15.4628H112.96C113.328 15.4688 113.662 15.5193 113.959 15.6145C114.256 15.7037 114.509 15.8376 114.717 16.0161C114.943 16.2064 115.113 16.4444 115.226 16.7299C115.345 17.0095 115.405 17.3367 115.405 17.7115C115.405 18.0446 115.351 18.3421 115.244 18.6038C115.137 18.8656 114.988 19.0857 114.798 19.2641C114.584 19.4723 114.322 19.633 114.012 19.746C113.709 19.8531 113.367 19.9096 112.986 19.9155H110.979Z" fill="#000958"/>
<path d="M126.005 26.7061H128.183V26.5544C128.064 26.3046 127.971 26.0071 127.906 25.6621C127.847 25.3111 127.817 24.9185 127.817 24.4842V20.1921C127.817 19.6449 127.716 19.163 127.513 18.7466C127.311 18.3242 127.032 17.9762 126.675 17.7026C126.318 17.4289 125.892 17.2237 125.399 17.0869C124.911 16.9441 124.384 16.8727 123.819 16.8727C123.189 16.8727 122.626 16.956 122.133 17.1225C121.645 17.2832 121.234 17.5033 120.901 17.7829C120.556 18.0565 120.294 18.3718 120.116 18.7287C119.938 19.0857 119.845 19.4575 119.839 19.8441H121.981C121.981 19.6597 122.014 19.4872 122.079 19.3266C122.151 19.16 122.258 19.0202 122.4 18.9072C122.543 18.7823 122.722 18.6841 122.936 18.6127C123.156 18.5413 123.412 18.5057 123.703 18.5057C124.024 18.5057 124.307 18.5473 124.551 18.6306C124.801 18.7079 125.012 18.8209 125.184 18.9697C125.345 19.1184 125.467 19.2939 125.55 19.4961C125.639 19.6984 125.684 19.9244 125.684 20.1743V20.8257H124.131C123.435 20.8257 122.811 20.8911 122.258 21.022C121.71 21.1529 121.249 21.3432 120.874 21.5931C120.47 21.8608 120.161 22.1999 119.946 22.6104C119.738 23.0149 119.634 23.4819 119.634 24.0113C119.634 24.4218 119.714 24.8055 119.875 25.1624C120.042 25.5134 120.274 25.8138 120.571 26.0637C120.863 26.3195 121.214 26.5217 121.624 26.6704C122.04 26.8132 122.499 26.8846 122.998 26.8846C123.308 26.8846 123.596 26.8548 123.864 26.7954C124.131 26.7359 124.381 26.6526 124.613 26.5455C124.845 26.4444 125.054 26.3254 125.238 26.1886C125.428 26.0458 125.598 25.8971 125.747 25.7424C125.776 25.9268 125.809 26.1053 125.845 26.2778C125.886 26.4444 125.94 26.5872 126.005 26.7061ZM123.409 25.1713C123.135 25.1713 122.897 25.1386 122.695 25.0732C122.493 25.0018 122.323 24.9066 122.186 24.7876C122.049 24.6686 121.945 24.5259 121.874 24.3593C121.802 24.1868 121.767 24.0024 121.767 23.8061C121.767 23.5681 121.808 23.354 121.892 23.1636C121.981 22.9732 122.115 22.8096 122.293 22.6728C122.496 22.5122 122.766 22.3902 123.105 22.307C123.444 22.2177 123.846 22.1731 124.31 22.1731H125.684V23.9578C125.607 24.1124 125.497 24.2612 125.354 24.4039C125.211 24.5467 125.042 24.6746 124.845 24.7876C124.649 24.9007 124.429 24.9929 124.185 25.0642C123.947 25.1356 123.688 25.1713 123.409 25.1713Z" fill="#000958"/>
<path d="M130.833 30.4182H132.965V25.8316C133.079 25.9566 133.2 26.0726 133.331 26.1797C133.462 26.2867 133.599 26.3819 133.742 26.4652C133.986 26.602 134.25 26.7061 134.536 26.7775C134.827 26.8489 135.146 26.8846 135.491 26.8846C136.098 26.8846 136.636 26.7597 137.106 26.5098C137.576 26.26 137.971 25.9149 138.293 25.4747C138.614 25.0405 138.855 24.5229 139.015 23.9221C139.182 23.3212 139.265 22.6728 139.265 21.9768V21.7894C139.265 21.0637 139.182 20.4004 139.015 19.7995C138.849 19.1927 138.608 18.6722 138.293 18.238C137.971 17.8037 137.573 17.4676 137.097 17.2296C136.627 16.9917 136.083 16.8727 135.464 16.8727C135.149 16.8727 134.851 16.9084 134.572 16.9798C134.292 17.0452 134.036 17.1404 133.804 17.2653C133.626 17.3605 133.459 17.4735 133.305 17.6044C133.15 17.7353 133.007 17.881 132.876 18.0416L132.796 17.0512H130.833V30.4182ZM137.133 21.7894V21.9768C137.133 22.4051 137.091 22.8126 137.008 23.1993C136.924 23.58 136.791 23.9191 136.606 24.2165C136.428 24.508 136.196 24.74 135.91 24.9126C135.631 25.0791 135.291 25.1624 134.893 25.1624C134.649 25.1624 134.426 25.1356 134.224 25.0821C134.021 25.0226 133.84 24.9453 133.679 24.8501C133.525 24.749 133.388 24.63 133.269 24.4932C133.15 24.3563 133.049 24.2046 132.965 24.0381V19.746C133.061 19.5675 133.171 19.4069 133.296 19.2641C133.427 19.1214 133.578 19.0024 133.751 18.9072C133.899 18.818 134.069 18.7496 134.259 18.702C134.45 18.6544 134.655 18.6306 134.875 18.6306C135.274 18.6306 135.616 18.7139 135.901 18.8804C136.187 19.047 136.422 19.2731 136.606 19.5586C136.785 19.8441 136.916 20.1802 136.999 20.5669C137.088 20.9476 137.133 21.3551 137.133 21.7894Z" fill="#000958"/>
<path d="M147.957 26.7061H150.134V26.5544C150.015 26.3046 149.923 26.0071 149.857 25.6621C149.798 25.3111 149.768 24.9185 149.768 24.4842V20.1921C149.768 19.6449 149.667 19.163 149.465 18.7466C149.262 18.3242 148.983 17.9762 148.626 17.7026C148.269 17.4289 147.844 17.2237 147.35 17.0869C146.862 16.9441 146.336 16.8727 145.77 16.8727C145.14 16.8727 144.578 16.956 144.084 17.1225C143.596 17.2832 143.186 17.5033 142.852 17.7829C142.507 18.0565 142.246 18.3718 142.067 18.7287C141.889 19.0857 141.797 19.4575 141.791 19.8441H143.932C143.932 19.6597 143.965 19.4872 144.03 19.3266C144.102 19.16 144.209 19.0202 144.352 18.9072C144.494 18.7823 144.673 18.6841 144.887 18.6127C145.107 18.5413 145.363 18.5057 145.654 18.5057C145.976 18.5057 146.258 18.5473 146.502 18.6306C146.752 18.7079 146.963 18.8209 147.136 18.9697C147.296 19.1184 147.418 19.2939 147.501 19.4961C147.591 19.6984 147.635 19.9244 147.635 20.1743V20.8257H146.083C145.387 20.8257 144.762 20.8911 144.209 21.022C143.662 21.1529 143.2 21.3432 142.826 21.5931C142.421 21.8608 142.112 22.1999 141.898 22.6104C141.689 23.0149 141.585 23.4819 141.585 24.0113C141.585 24.4218 141.666 24.8055 141.826 25.1624C141.993 25.5134 142.225 25.8138 142.522 26.0637C142.814 26.3195 143.165 26.5217 143.575 26.6704C143.992 26.8132 144.45 26.8846 144.949 26.8846C145.259 26.8846 145.547 26.8548 145.815 26.7954C146.083 26.7359 146.333 26.6526 146.565 26.5455C146.797 26.4444 147.005 26.3254 147.189 26.1886C147.38 26.0458 147.549 25.8971 147.698 25.7424C147.728 25.9268 147.76 26.1053 147.796 26.2778C147.838 26.4444 147.891 26.5872 147.957 26.7061ZM145.36 25.1713C145.086 25.1713 144.848 25.1386 144.646 25.0732C144.444 25.0018 144.274 24.9066 144.137 24.7876C144.001 24.6686 143.896 24.5259 143.825 24.3593C143.754 24.1868 143.718 24.0024 143.718 23.8061C143.718 23.5681 143.76 23.354 143.843 23.1636C143.932 22.9732 144.066 22.8096 144.244 22.6728C144.447 22.5122 144.717 22.3902 145.057 22.307C145.396 22.2177 145.797 22.1731 146.261 22.1731H147.635V23.9578C147.558 24.1124 147.448 24.2612 147.305 24.4039C147.162 24.5467 146.993 24.6746 146.797 24.7876C146.6 24.9007 146.38 24.9929 146.136 25.0642C145.898 25.1356 145.64 25.1713 145.36 25.1713Z" fill="#000958"/>
<path d="M159.441 16.8727C158.775 16.8727 158.165 17.0274 157.612 17.3367C157.064 17.646 156.594 18.0714 156.202 18.6127L156.193 18.3896L156.104 17.0512H154.105V26.7061H156.237V20.7454C156.35 20.4598 156.49 20.207 156.657 19.9869C156.823 19.7668 157.026 19.5854 157.264 19.4426C157.484 19.2939 157.736 19.1838 158.022 19.1124C158.308 19.041 158.629 19.0054 158.986 19.0054C159.301 19.0054 159.616 19.0232 159.932 19.0589C160.253 19.0946 160.577 19.1481 160.904 19.2195L161.208 17.1136C161.023 17.0482 160.767 16.9917 160.44 16.9441C160.119 16.8965 159.786 16.8727 159.441 16.8727Z" fill="#000958"/>
<path d="M164.233 17.0512V18.8269H167.204V24.9393H164.233V26.7061H172.192V24.9393H169.355V17.0512H164.233ZM167.008 14.5526C167.008 14.7787 167.061 14.978 167.168 15.1505C167.281 15.3171 167.445 15.4331 167.659 15.4985C167.867 15.564 168.058 15.5788 168.23 15.5431C168.403 15.5074 168.551 15.4331 168.676 15.32C168.926 15.2546 169.117 15.1267 169.247 14.9363C169.378 14.74 169.423 14.511 169.381 14.2493C169.352 13.9935 169.236 13.7852 169.033 13.6246C168.837 13.4581 168.578 13.3748 168.257 13.3748C168.067 13.3748 167.894 13.4045 167.739 13.464C167.591 13.5175 167.463 13.5949 167.356 13.696C167.243 13.8031 167.156 13.931 167.097 14.0797C167.037 14.2225 167.008 14.3801 167.008 14.5526Z" fill="#000958"/>
<path d="M174.441 21.8073V21.9946C174.441 22.6907 174.53 23.3391 174.709 23.9399C174.893 24.5348 175.152 25.0494 175.485 25.4836C175.824 25.9239 176.231 26.2689 176.707 26.5187C177.183 26.7626 177.719 26.8846 178.314 26.8846C178.641 26.8846 178.944 26.8489 179.224 26.7775C179.503 26.7121 179.759 26.6139 179.991 26.483C180.146 26.3998 180.289 26.3016 180.419 26.1886C180.556 26.0756 180.687 25.9536 180.812 25.8227V26.492C180.812 26.8548 180.758 27.1791 180.651 27.4646C180.55 27.7501 180.405 27.9911 180.214 28.1874C180.006 28.3896 179.753 28.5443 179.456 28.6514C179.164 28.7585 178.828 28.812 178.447 28.812C178.227 28.812 178.01 28.7882 177.796 28.7406C177.582 28.699 177.371 28.6306 177.162 28.5354C176.954 28.4402 176.749 28.3153 176.547 28.1606C176.35 28.0119 176.166 27.8334 175.993 27.6252L174.985 28.9191C175.199 29.2046 175.455 29.4485 175.753 29.6508C176.05 29.8531 176.362 30.0167 176.689 30.1416C177.017 30.2665 177.344 30.3587 177.671 30.4182C177.998 30.4777 178.299 30.5074 178.572 30.5074C179.221 30.5074 179.813 30.4152 180.348 30.2308C180.889 30.0523 181.353 29.7906 181.74 29.4456C182.121 29.0946 182.415 28.6663 182.623 28.1606C182.838 27.6609 182.945 27.0869 182.945 26.4384V17.0512H181.008L180.919 18.0238C180.8 17.881 180.672 17.7501 180.535 17.6312C180.399 17.5062 180.253 17.3992 180.098 17.3099C179.86 17.1672 179.595 17.0601 179.304 16.9887C179.012 16.9114 178.688 16.8727 178.331 16.8727C177.731 16.8727 177.189 16.9946 176.707 17.2385C176.231 17.4765 175.824 17.8126 175.485 18.2469C175.146 18.6811 174.887 19.2017 174.709 19.8084C174.53 20.4093 174.441 21.0756 174.441 21.8073ZM176.582 21.9946V21.8073C176.582 21.373 176.627 20.9655 176.716 20.5848C176.805 20.1981 176.945 19.859 177.136 19.5675C177.32 19.276 177.555 19.047 177.841 18.8804C178.126 18.7139 178.468 18.6306 178.867 18.6306C179.093 18.6306 179.301 18.6573 179.491 18.7109C179.682 18.7585 179.854 18.8239 180.009 18.9072C180.181 19.0083 180.333 19.1303 180.464 19.2731C180.601 19.4158 180.717 19.5764 180.812 19.7549V23.9845C180.717 24.157 180.607 24.3147 180.482 24.4575C180.357 24.6002 180.214 24.7222 180.054 24.8233C179.893 24.9185 179.711 24.9929 179.509 25.0464C179.313 25.0999 179.093 25.1267 178.849 25.1267C178.456 25.1267 178.117 25.0464 177.832 24.8858C177.546 24.7192 177.311 24.4902 177.127 24.1987C176.936 23.9191 176.797 23.5889 176.707 23.2082C176.624 22.8275 176.582 22.423 176.582 21.9946Z" fill="#000958"/>
<path d="M191.859 26.7061H194.036V26.5544C193.917 26.3046 193.825 26.0071 193.76 25.6621C193.7 25.3111 193.67 24.9185 193.67 24.4842V20.1921C193.67 19.6449 193.569 19.163 193.367 18.7466C193.165 18.3242 192.885 17.9762 192.528 17.7026C192.171 17.4289 191.746 17.2237 191.252 17.0869C190.764 16.9441 190.238 16.8727 189.673 16.8727C189.042 16.8727 188.48 16.956 187.986 17.1225C187.499 17.2832 187.088 17.5033 186.755 17.7829C186.41 18.0565 186.148 18.3718 185.97 18.7287C185.791 19.0857 185.699 19.4575 185.693 19.8441H187.835C187.835 19.6597 187.867 19.4872 187.933 19.3266C188.004 19.16 188.111 19.0202 188.254 18.9072C188.397 18.7823 188.575 18.6841 188.789 18.6127C189.01 18.5413 189.265 18.5057 189.557 18.5057C189.878 18.5057 190.161 18.5473 190.405 18.6306C190.654 18.7079 190.866 18.8209 191.038 18.9697C191.199 19.1184 191.321 19.2939 191.404 19.4961C191.493 19.6984 191.538 19.9244 191.538 20.1743V20.8257H189.985C189.289 20.8257 188.664 20.8911 188.111 21.022C187.564 21.1529 187.103 21.3432 186.728 21.5931C186.324 21.8608 186.014 22.1999 185.8 22.6104C185.592 23.0149 185.488 23.4819 185.488 24.0113C185.488 24.4218 185.568 24.8055 185.729 25.1624C185.895 25.5134 186.127 25.8138 186.425 26.0637C186.716 26.3195 187.067 26.5217 187.478 26.6704C187.894 26.8132 188.352 26.8846 188.852 26.8846C189.161 26.8846 189.45 26.8548 189.717 26.7954C189.985 26.7359 190.235 26.6526 190.467 26.5455C190.699 26.4444 190.907 26.3254 191.092 26.1886C191.282 26.0458 191.452 25.8971 191.6 25.7424C191.63 25.9268 191.663 26.1053 191.698 26.2778C191.74 26.4444 191.794 26.5872 191.859 26.7061ZM189.262 25.1713C188.989 25.1713 188.751 25.1386 188.548 25.0732C188.346 25.0018 188.177 24.9066 188.04 24.7876C187.903 24.6686 187.799 24.5259 187.728 24.3593C187.656 24.1868 187.62 24.0024 187.62 23.8061C187.62 23.5681 187.662 23.354 187.745 23.1636C187.835 22.9732 187.968 22.8096 188.147 22.6728C188.349 22.5122 188.62 22.3902 188.959 22.307C189.298 22.2177 189.7 22.1731 190.164 22.1731H191.538V23.9578C191.46 24.1124 191.35 24.2612 191.208 24.4039C191.065 24.5467 190.895 24.6746 190.699 24.7876C190.503 24.9007 190.283 24.9929 190.039 25.0642C189.801 25.1356 189.542 25.1713 189.262 25.1713Z" fill="#000958"/>
<path d="M202.977 24.0916C202.977 24.2463 202.942 24.3891 202.87 24.5199C202.805 24.6449 202.704 24.7609 202.567 24.8679C202.4 24.9988 202.177 25.1029 201.898 25.1803C201.624 25.2576 201.303 25.2963 200.934 25.2963C200.66 25.2963 200.39 25.2695 200.122 25.2159C199.854 25.1565 199.616 25.0613 199.408 24.9304C199.194 24.8055 199.015 24.6419 198.873 24.4396C198.736 24.2314 198.659 23.9786 198.641 23.6811H196.57C196.57 24.0797 196.666 24.4723 196.856 24.859C197.046 25.2457 197.326 25.5877 197.695 25.8852C198.058 26.1886 198.507 26.4325 199.042 26.6169C199.584 26.8013 200.202 26.8935 200.898 26.8935C201.523 26.8935 202.091 26.8221 202.603 26.6794C203.114 26.5366 203.554 26.3373 203.923 26.0815C204.286 25.8257 204.566 25.5193 204.762 25.1624C204.964 24.8055 205.065 24.4128 205.065 23.9845C205.065 23.5443 204.97 23.1636 204.78 22.8424C204.59 22.5211 204.322 22.2415 203.977 22.0036C203.632 21.7775 203.215 21.5872 202.728 21.4325C202.24 21.2778 201.701 21.1469 201.112 21.0399C200.69 20.9685 200.339 20.8882 200.059 20.7989C199.786 20.7097 199.572 20.6115 199.417 20.5045C199.25 20.4033 199.134 20.2873 199.069 20.1565C199.004 20.0196 198.971 19.8679 198.971 19.7014C198.971 19.5407 199.01 19.3891 199.087 19.2463C199.164 19.0976 199.28 18.9697 199.435 18.8626C199.59 18.7436 199.786 18.6514 200.024 18.586C200.268 18.5146 200.55 18.4789 200.872 18.4789C201.222 18.4789 201.529 18.5265 201.791 18.6217C202.052 18.7109 202.267 18.8328 202.433 18.9875C202.576 19.1184 202.683 19.2671 202.754 19.4337C202.832 19.5943 202.87 19.7638 202.87 19.9423H205.003C205.003 19.508 204.908 19.1035 204.717 18.7287C204.527 18.354 204.256 18.0297 203.905 17.7561C203.548 17.4825 203.114 17.2683 202.603 17.1136C202.091 16.953 201.514 16.8727 200.872 16.8727C200.271 16.8727 199.723 16.95 199.23 17.1047C198.742 17.2594 198.325 17.4706 197.98 17.7383C197.629 18.0059 197.359 18.3183 197.168 18.6752C196.984 19.0262 196.892 19.398 196.892 19.7906C196.892 20.2011 196.984 20.561 197.168 20.8703C197.353 21.1797 197.609 21.4474 197.936 21.6734C198.269 21.9114 198.664 22.1136 199.123 22.2802C199.587 22.4468 200.098 22.5866 200.657 22.6996C201.104 22.7829 201.475 22.8721 201.773 22.9673C202.07 23.0625 202.311 23.1636 202.496 23.2707C202.668 23.3896 202.79 23.5146 202.861 23.6454C202.939 23.7763 202.977 23.925 202.977 24.0916Z" fill="#000958"/>
<path d="M218.334 21.8073V21.9946C218.334 22.6907 218.424 23.3391 218.602 23.9399C218.78 24.5348 219.033 25.0494 219.361 25.4836C219.688 25.9239 220.086 26.2689 220.556 26.5187C221.026 26.7626 221.556 26.8846 222.145 26.8846C222.704 26.8846 223.197 26.7835 223.626 26.5812C224.054 26.373 224.423 26.0785 224.732 25.6978L224.83 26.7061H226.767V13H224.634V17.9524C224.325 17.6074 223.968 17.3427 223.563 17.1582C223.165 16.9679 222.698 16.8727 222.162 16.8727C221.568 16.8727 221.032 16.9946 220.556 17.2385C220.086 17.4765 219.688 17.8126 219.361 18.2469C219.027 18.6811 218.772 19.2017 218.593 19.8084C218.421 20.4093 218.334 21.0756 218.334 21.8073ZM220.467 21.9946V21.8073C220.467 21.373 220.509 20.9655 220.592 20.5848C220.675 20.1981 220.809 19.859 220.993 19.5675C221.166 19.276 221.392 19.047 221.672 18.8804C221.957 18.7139 222.299 18.6306 222.698 18.6306C223.174 18.6306 223.566 18.7377 223.876 18.9518C224.191 19.16 224.444 19.4426 224.634 19.7995V23.9488C224.444 24.3117 224.191 24.6002 223.876 24.8144C223.56 25.0226 223.162 25.1267 222.68 25.1267C222.287 25.1267 221.951 25.0464 221.672 24.8858C221.392 24.7192 221.163 24.4902 220.985 24.1987C220.806 23.9191 220.675 23.5889 220.592 23.2082C220.509 22.8275 220.467 22.423 220.467 21.9946Z" fill="#000958"/>
<path d="M229.203 21.7894V21.9768C229.203 22.6847 229.304 23.3361 229.506 23.931C229.709 24.5259 230.003 25.0434 230.39 25.4836C230.77 25.9239 231.24 26.2689 231.8 26.5187C232.359 26.7686 232.992 26.8935 233.7 26.8935C234.402 26.8935 235.03 26.7686 235.583 26.5187C236.142 26.2689 236.612 25.9239 236.993 25.4836C237.374 25.0434 237.665 24.5259 237.867 23.931C238.07 23.3361 238.171 22.6847 238.171 21.9768V21.7894C238.171 21.0874 238.07 20.439 237.867 19.8441C237.665 19.2433 237.374 18.7228 236.993 18.2826C236.606 17.8424 236.133 17.4973 235.574 17.2475C235.021 16.9976 234.39 16.8727 233.682 16.8727C232.974 16.8727 232.344 16.9976 231.791 17.2475C231.237 17.4973 230.77 17.8424 230.39 18.2826C230.003 18.7228 229.709 19.2433 229.506 19.8441C229.304 20.439 229.203 21.0874 229.203 21.7894ZM231.336 21.9768V21.7894C231.336 21.367 231.38 20.9625 231.469 20.5758C231.565 20.1892 231.71 19.8501 231.907 19.5586C232.097 19.2671 232.338 19.0351 232.629 18.8626C232.927 18.6901 233.278 18.6038 233.682 18.6038C234.093 18.6038 234.444 18.6901 234.735 18.8626C235.033 19.0351 235.28 19.2671 235.476 19.5586C235.66 19.8501 235.8 20.1892 235.895 20.5758C235.99 20.9625 236.038 21.367 236.038 21.7894V21.9768C236.038 22.4111 235.99 22.8215 235.895 23.2082C235.806 23.5949 235.666 23.934 235.476 24.2255C235.286 24.517 235.042 24.749 234.744 24.9215C234.447 25.088 234.099 25.1713 233.7 25.1713C233.29 25.1713 232.936 25.088 232.638 24.9215C232.341 24.749 232.097 24.517 231.907 24.2255C231.71 23.934 231.565 23.5949 231.469 23.2082C231.38 22.8215 231.336 22.4111 231.336 21.9768Z" fill="#000958"/>
<path d="M260.265 22.7085H258.114C258.079 23.1011 258.001 23.4491 257.882 23.7525C257.763 24.0559 257.606 24.3087 257.409 24.511C257.207 24.7192 256.963 24.8769 256.678 24.9839C256.392 25.091 256.065 25.1446 255.696 25.1446C255.387 25.1446 255.11 25.1029 254.866 25.0196C254.628 24.9304 254.417 24.8025 254.233 24.6359C254.054 24.4813 253.899 24.2968 253.769 24.0827C253.644 23.8685 253.54 23.6306 253.456 23.3688C253.349 23.0535 253.269 22.7055 253.215 22.3248C253.168 21.9441 253.144 21.5366 253.144 21.1023V19.3087C253.144 18.9578 253.162 18.6157 253.197 18.2826C253.239 17.9435 253.299 17.6252 253.376 17.3278C253.477 16.9887 253.605 16.6823 253.76 16.4087C253.92 16.1291 254.12 15.903 254.358 15.7305C254.53 15.5877 254.726 15.4777 254.946 15.4004C255.173 15.323 255.425 15.2844 255.705 15.2844C256.104 15.2844 256.446 15.3438 256.731 15.4628C257.017 15.5758 257.258 15.7424 257.454 15.9625C257.644 16.1826 257.793 16.4503 257.9 16.7656C258.013 17.075 258.087 17.423 258.123 17.8096H260.265C260.199 17.1612 260.054 16.5723 259.827 16.0428C259.607 15.5134 259.304 15.0613 258.917 14.6865C258.537 14.3177 258.076 14.0321 257.534 13.8299C256.999 13.6276 256.389 13.5265 255.705 13.5265C255.199 13.5265 254.732 13.5949 254.304 13.7317C253.882 13.8685 253.495 14.0589 253.144 14.3028C252.775 14.5705 252.448 14.8947 252.162 15.2754C251.883 15.6502 251.654 16.0696 251.475 16.5336C251.309 16.95 251.184 17.3932 251.101 17.8632C251.017 18.3331 250.976 18.8209 250.976 19.3266V21.1023C250.976 21.6318 251.017 22.1404 251.101 22.6282C251.19 23.116 251.321 23.5681 251.493 23.9845C251.666 24.4069 251.877 24.7965 252.127 25.1535C252.383 25.5045 252.68 25.8049 253.019 26.0547C253.37 26.3224 253.769 26.5306 254.215 26.6794C254.667 26.8221 255.161 26.8935 255.696 26.8935C256.35 26.8935 256.945 26.7954 257.481 26.599C258.022 26.3968 258.489 26.1112 258.882 25.7424C259.268 25.3795 259.581 24.9423 259.819 24.4307C260.057 23.9131 260.205 23.3391 260.265 22.7085Z" fill="#000958"/>
<path d="M262.13 21.7894V21.9768C262.13 22.6847 262.231 23.3361 262.433 23.931C262.635 24.5259 262.93 25.0434 263.316 25.4836C263.697 25.9239 264.167 26.2689 264.726 26.5187C265.286 26.7686 265.919 26.8935 266.627 26.8935C267.329 26.8935 267.957 26.7686 268.51 26.5187C269.069 26.2689 269.539 25.9239 269.92 25.4836C270.3 25.0434 270.592 24.5259 270.794 23.931C270.996 23.3361 271.098 22.6847 271.098 21.9768V21.7894C271.098 21.0874 270.996 20.439 270.794 19.8441C270.592 19.2433 270.3 18.7228 269.92 18.2826C269.533 17.8424 269.06 17.4973 268.501 17.2475C267.948 16.9976 267.317 16.8727 266.609 16.8727C265.901 16.8727 265.271 16.9976 264.717 17.2475C264.164 17.4973 263.697 17.8424 263.316 18.2826C262.93 18.7228 262.635 19.2433 262.433 19.8441C262.231 20.439 262.13 21.0874 262.13 21.7894ZM264.262 21.9768V21.7894C264.262 21.367 264.307 20.9625 264.396 20.5758C264.491 20.1892 264.637 19.8501 264.833 19.5586C265.024 19.2671 265.265 19.0351 265.556 18.8626C265.854 18.6901 266.205 18.6038 266.609 18.6038C267.02 18.6038 267.371 18.6901 267.662 18.8626C267.96 19.0351 268.206 19.2671 268.403 19.5586C268.587 19.8501 268.727 20.1892 268.822 20.5758C268.917 20.9625 268.965 21.367 268.965 21.7894V21.9768C268.965 22.4111 268.917 22.8215 268.822 23.2082C268.733 23.5949 268.593 23.934 268.403 24.2255C268.212 24.517 267.968 24.749 267.671 24.9215C267.374 25.088 267.026 25.1713 266.627 25.1713C266.217 25.1713 265.863 25.088 265.565 24.9215C265.268 24.749 265.024 24.517 264.833 24.2255C264.637 23.934 264.491 23.5949 264.396 23.2082C264.307 22.8215 264.262 22.4111 264.262 21.9768ZM267.377 13.3123L265.726 15.7484H267.368L269.804 13.3123H267.377Z" fill="#000958"/>
<path d="M273.212 21.8073V21.9946C273.212 22.6907 273.302 23.3391 273.48 23.9399C273.659 24.5348 273.911 25.0494 274.239 25.4836C274.566 25.9239 274.964 26.2689 275.434 26.5187C275.904 26.7626 276.434 26.8846 277.023 26.8846C277.582 26.8846 278.076 26.7835 278.504 26.5812C278.932 26.373 279.301 26.0785 279.61 25.6978L279.709 26.7061H281.645V13H279.512V17.9524C279.203 17.6074 278.846 17.3427 278.441 17.1582C278.043 16.9679 277.576 16.8727 277.04 16.8727C276.446 16.8727 275.91 16.9946 275.434 17.2385C274.964 17.4765 274.566 17.8126 274.239 18.2469C273.905 18.6811 273.65 19.2017 273.471 19.8084C273.299 20.4093 273.212 21.0756 273.212 21.8073ZM275.345 21.9946V21.8073C275.345 21.373 275.387 20.9655 275.47 20.5848C275.553 20.1981 275.687 19.859 275.872 19.5675C276.044 19.276 276.27 19.047 276.55 18.8804C276.835 18.7139 277.177 18.6306 277.576 18.6306C278.052 18.6306 278.444 18.7377 278.754 18.9518C279.069 19.16 279.322 19.4426 279.512 19.7995V23.9488C279.322 24.3117 279.069 24.6002 278.754 24.8144C278.438 25.0226 278.04 25.1267 277.558 25.1267C277.165 25.1267 276.829 25.0464 276.55 24.8858C276.27 24.7192 276.041 24.4902 275.863 24.1987C275.684 23.9191 275.553 23.5889 275.47 23.2082C275.387 22.8275 275.345 22.423 275.345 21.9946Z" fill="#000958"/>
<path d="M284.964 17.0512V18.8269H287.936V24.9393H284.964V26.7061H292.924V24.9393H290.086V17.0512H284.964ZM287.739 14.5526C287.739 14.7787 287.793 14.978 287.9 15.1505C288.013 15.3171 288.177 15.4331 288.391 15.4985C288.599 15.564 288.789 15.5788 288.962 15.5431C289.134 15.5074 289.283 15.4331 289.408 15.32C289.658 15.2546 289.848 15.1267 289.979 14.9363C290.11 14.74 290.155 14.511 290.113 14.2493C290.083 13.9935 289.967 13.7852 289.765 13.6246C289.569 13.4581 289.31 13.3748 288.989 13.3748C288.798 13.3748 288.626 13.4045 288.471 13.464C288.322 13.5175 288.195 13.5949 288.087 13.696C287.974 13.8031 287.888 13.931 287.829 14.0797C287.769 14.2225 287.739 14.3801 287.739 14.5526Z" fill="#000958"/>
<path d="M295.173 21.8073V21.9946C295.173 22.6907 295.262 23.3391 295.44 23.9399C295.625 24.5348 295.883 25.0494 296.217 25.4836C296.556 25.9239 296.963 26.2689 297.439 26.5187C297.915 26.7626 298.45 26.8846 299.045 26.8846C299.372 26.8846 299.676 26.8489 299.955 26.7775C300.235 26.7121 300.491 26.6139 300.723 26.483C300.877 26.3998 301.02 26.3016 301.151 26.1886C301.288 26.0756 301.419 25.9536 301.544 25.8227V26.492C301.544 26.8548 301.49 27.1791 301.383 27.4646C301.282 27.7501 301.136 27.9911 300.946 28.1874C300.738 28.3896 300.485 28.5443 300.187 28.6514C299.896 28.7585 299.56 28.812 299.179 28.812C298.959 28.812 298.742 28.7882 298.528 28.7406C298.314 28.699 298.102 28.6306 297.894 28.5354C297.686 28.4402 297.481 28.3153 297.278 28.1606C297.082 28.0119 296.898 27.8334 296.725 27.6252L295.717 28.9191C295.931 29.2046 296.187 29.4485 296.484 29.6508C296.782 29.8531 297.094 30.0167 297.421 30.1416C297.748 30.2665 298.076 30.3587 298.403 30.4182C298.73 30.4777 299.03 30.5074 299.304 30.5074C299.952 30.5074 300.544 30.4152 301.08 30.2308C301.621 30.0523 302.085 29.7906 302.472 29.4456C302.852 29.0946 303.147 28.6663 303.355 28.1606C303.569 27.6609 303.676 27.0869 303.676 26.4384V17.0512H301.74L301.651 18.0238C301.532 17.881 301.404 17.7501 301.267 17.6312C301.13 17.5062 300.985 17.3992 300.83 17.3099C300.592 17.1672 300.327 17.0601 300.036 16.9887C299.744 16.9114 299.42 16.8727 299.063 16.8727C298.462 16.8727 297.921 16.9946 297.439 17.2385C296.963 17.4765 296.556 17.8126 296.217 18.2469C295.877 18.6811 295.619 19.2017 295.44 19.8084C295.262 20.4093 295.173 21.0756 295.173 21.8073ZM297.314 21.9946V21.8073C297.314 21.373 297.359 20.9655 297.448 20.5848C297.537 20.1981 297.677 19.859 297.867 19.5675C298.052 19.276 298.287 19.047 298.572 18.8804C298.858 18.7139 299.2 18.6306 299.598 18.6306C299.825 18.6306 300.033 18.6573 300.223 18.7109C300.413 18.7585 300.586 18.8239 300.741 18.9072C300.913 19.0083 301.065 19.1303 301.196 19.2731C301.333 19.4158 301.449 19.5764 301.544 19.7549V23.9845C301.449 24.157 301.338 24.3147 301.214 24.4575C301.089 24.6002 300.946 24.7222 300.785 24.8233C300.625 24.9185 300.443 24.9929 300.241 25.0464C300.045 25.0999 299.825 25.1267 299.581 25.1267C299.188 25.1267 298.849 25.0464 298.563 24.8858C298.278 24.7192 298.043 24.4902 297.858 24.1987C297.668 23.9191 297.528 23.5889 297.439 23.2082C297.356 22.8275 297.314 22.423 297.314 21.9946Z" fill="#000958"/>
<path d="M306.032 21.7894V21.9768C306.032 22.6847 306.133 23.3361 306.336 23.931C306.538 24.5259 306.832 25.0434 307.219 25.4836C307.6 25.9239 308.07 26.2689 308.629 26.5187C309.188 26.7686 309.822 26.8935 310.529 26.8935C311.231 26.8935 311.859 26.7686 312.412 26.5187C312.971 26.2689 313.441 25.9239 313.822 25.4836C314.203 25.0434 314.494 24.5259 314.697 23.931C314.899 23.3361 315 22.6847 315 21.9768V21.7894C315 21.0874 314.899 20.439 314.697 19.8441C314.494 19.2433 314.203 18.7228 313.822 18.2826C313.435 17.8424 312.963 17.4973 312.403 17.2475C311.85 16.9976 311.22 16.8727 310.512 16.8727C309.804 16.8727 309.173 16.9976 308.62 17.2475C308.067 17.4973 307.6 17.8424 307.219 18.2826C306.832 18.7228 306.538 19.2433 306.336 19.8441C306.133 20.439 306.032 21.0874 306.032 21.7894ZM308.165 21.9768V21.7894C308.165 21.367 308.209 20.9625 308.299 20.5758C308.394 20.1892 308.54 19.8501 308.736 19.5586C308.926 19.2671 309.167 19.0351 309.459 18.8626C309.756 18.6901 310.107 18.6038 310.512 18.6038C310.922 18.6038 311.273 18.6901 311.565 18.8626C311.862 19.0351 312.109 19.2671 312.305 19.5586C312.49 19.8501 312.629 20.1892 312.725 20.5758C312.82 20.9625 312.867 21.367 312.867 21.7894V21.9768C312.867 22.4111 312.82 22.8215 312.725 23.2082C312.635 23.5949 312.496 23.934 312.305 24.2255C312.115 24.517 311.871 24.749 311.573 24.9215C311.276 25.088 310.928 25.1713 310.529 25.1713C310.119 25.1713 309.765 25.088 309.468 24.9215C309.17 24.749 308.926 24.517 308.736 24.2255C308.54 23.934 308.394 23.5949 308.299 23.2082C308.209 22.8215 308.165 22.4111 308.165 21.9768Z" fill="#000958"/>
</svg>
