<?xml version="1.0" encoding="utf-8"?>
<!-- Generator: Adobe Illustrator 23.0.2, SVG Export Plug-In . SVG Version: 6.00 Build 0)  -->
<svg version="1.1" xmlns="http://www.w3.org/2000/svg" xmlns:xlink="http://www.w3.org/1999/xlink" x="0px" y="0px"
	 viewBox="0 0 566.93 566.93" style="enable-background:new 0 0 566.93 566.93;" xml:space="preserve">
<style type="text/css">
	.st0{fill:#E9E9E9;}
	.st1{fill:#52B2D8;}
	.st2{fill:#D0664E;}
	.st3{fill:#193540;}
	.st4{opacity:0.6;fill:#E9E9E9;}
	.st5{fill:#F1C3CC;stroke:#231F20;stroke-width:2;stroke-linecap:round;stroke-linejoin:round;stroke-miterlimit:10;}
	.st6{fill:#4EA57D;stroke:#231F20;stroke-width:2;}
	.st7{fill:none;stroke:#231F20;stroke-linecap:round;stroke-linejoin:round;stroke-miterlimit:10;}
	.st8{fill:none;stroke:#231F20;stroke-width:0.8894;stroke-miterlimit:10;}
	.st9{fill:none;stroke:#231F20;stroke-width:0.5;stroke-miterlimit:10;}
	.st10{fill:#FFFFFF;stroke:#231F20;stroke-width:0.5;stroke-miterlimit:10;}
	.st11{fill:#FFFFFF;stroke:#231F20;stroke-width:0.5;stroke-linecap:round;stroke-linejoin:round;stroke-miterlimit:10;}
	.st12{fill:#FFFFFF;stroke:#231F20;stroke-width:0.4882;stroke-miterlimit:10;}
	.st13{fill:none;stroke:#000000;}
	.st14{fill:none;stroke:#000000;stroke-linecap:round;stroke-linejoin:round;stroke-miterlimit:10;}
	.st15{fill:#4EA57D;}
	.st16{fill:#14563E;}
	.st17{fill:#F1C3CC;}
	.st18{fill:#231F20;}
	.st19{fill:none;stroke:#3A3A3A;stroke-width:6;stroke-linecap:round;stroke-linejoin:round;stroke-miterlimit:10;}
	.st20{fill:#F1C3CC;stroke:#231F20;stroke-width:6;stroke-linecap:round;stroke-linejoin:round;stroke-miterlimit:10;}
	.st21{fill:#4EA57D;stroke:#231F20;stroke-width:6;}
	.st22{fill:#3A3A3A;}
	.st23{fill:#F1C3CC;stroke:#E1E1E1;stroke-width:2;stroke-linecap:round;stroke-linejoin:round;stroke-miterlimit:10;}
	.st24{fill:#4EA57D;stroke:#E1E1E1;stroke-width:2;}
	.st25{fill:#F1C3CC;stroke:#231F20;stroke-width:5.3758;stroke-linecap:round;stroke-linejoin:round;stroke-miterlimit:10;}
	.st26{fill:#4EA57D;stroke:#231F20;stroke-width:6.3262;}
	.st27{fill:#E1E1E1;}
	.st28{display:none;}
	.st29{display:inline;opacity:0.5;}
	.st30{display:inline;}
	.st31{fill:#4EA57D;stroke:#E1E1E1;stroke-width:6;}
</style>
<g id="Background">
</g>
<g id="Layer_1">
	<g>
		<g>
			<g>
				<g>
					<g>
						<path class="st22" d="M404.94,248.07l-5.89,9.66c-0.88,1.46-1.8,2.91-2.71,4.31c-3.47,5.35-7.38,10.8-11.63,16.18
							c-4.87,6.19-10.26,12.41-16.04,18.49c-1.09,1.15-2.2,2.3-3.32,3.44l-5.95-2.52c1.67-1.67,3.32-3.36,4.92-5.05
							c5.65-5.95,10.92-12.03,15.67-18.07c4.14-5.24,7.95-10.54,11.31-15.74c0.89-1.36,1.77-2.75,2.63-4.16l3.51-5.77l-6.11,2.86
							c-1.52,0.7-3.01,1.42-4.42,2.14c-5.55,2.77-11.24,5.97-16.91,9.5c-5.33,3.31-10.73,6.96-16.09,10.89
							c0,0.01-0.01,0.02-0.01,0.03c-1.99,6.09-4.4,12.13-7.17,18.02l-5.54-2.34c1.4-2.95,2.7-5.95,3.9-8.97
							c1.13-2.84,2.17-5.71,3.11-8.58c0.2-0.61,0.4-1.22,0.58-1.83c2.27-7.2,3.95-14.49,5.02-21.71c1.03-6.8,1.52-13.63,1.47-20.31
							c-0.01-1.72-0.06-3.51-0.16-5.35l-0.64-12.48c-0.01-0.3-0.06-0.48-0.1-0.59c-0.11,0.03-0.29,0.1-0.54,0.26l-10.47,6.81
							c-1.54,0.99-3.02,2-4.41,3.01c-5.46,3.89-10.7,8.3-15.59,13.12c-0.88,0.86-1.76,1.74-2.62,2.64
							c1.88,4.81,3.41,9.73,4.59,14.73c1.89,8.08,2.85,16.38,2.85,24.69c0,2.97-0.12,5.94-0.37,8.91l-5.84-2.47
							c0.14-2.15,0.21-4.29,0.21-6.44c0-7.84-0.9-15.69-2.7-23.32c-0.88-3.77-1.98-7.49-3.3-11.15c-0.74-2.1-1.57-4.18-2.46-6.24
							c-0.86-2.01-1.79-3.99-2.79-5.94c-3.26-6.5-7.27-12.79-11.93-18.7c-1.19-1.54-2.49-3.11-3.87-4.69l-11.64-13.38l-11.64,13.37
							c-1.38,1.59-2.68,3.16-3.86,4.68c-4.67,5.93-8.68,12.22-11.94,18.7c-1,1.96-1.93,3.95-2.79,5.96
							c-0.9,2.06-1.72,4.14-2.46,6.25c-1.32,3.66-2.42,7.38-3.3,11.14c-1.8,7.63-2.7,15.48-2.7,23.32c0,2.14,0.07,4.28,0.21,6.41
							l-5.84,2.46c-0.25-2.95-0.37-5.91-0.37-8.87c0-8.31,0.96-16.61,2.85-24.69c1.17-4.99,2.71-9.92,4.59-14.73
							c-0.86-0.89-1.73-1.77-2.61-2.63c-4.9-4.83-10.14-9.24-15.58-13.12c-1.41-1.02-2.89-2.03-4.42-3.02l-10.48-6.81
							c-0.23-0.15-0.42-0.24-0.55-0.29c-0.04,0.14-0.08,0.34-0.1,0.62l-0.63,12.47c-0.1,1.83-0.15,3.62-0.16,5.34
							c-0.05,6.7,0.44,13.53,1.47,20.32c1.06,7.23,2.75,14.52,5.02,21.72c0.18,0.61,0.38,1.22,0.58,1.83
							c0.94,2.87,1.98,5.73,3.11,8.57c1.19,3.02,2.49,6,3.88,8.95l-5.53,2.33c-2.77-5.87-5.17-11.9-7.16-17.98
							c0-0.01-0.01-0.02-0.01-0.03c-5.36-3.93-10.76-7.58-16.09-10.89c-5.67-3.53-11.35-6.73-16.9-9.5
							c-1.43-0.72-2.92-1.44-4.42-2.14l-6.12-2.86l3.51,5.76c0.87,1.43,1.75,2.83,2.62,4.16c3.37,5.21,7.17,10.5,11.31,15.74
							c4.76,6.05,10.03,12.13,15.68,18.08c1.59,1.68,3.22,3.35,4.89,5.01l-5.96,2.52c-1.11-1.13-2.2-2.26-3.28-3.4
							c-5.78-6.08-11.17-12.3-16.04-18.49c-4.25-5.39-8.17-10.84-11.63-16.19c-0.9-1.38-1.82-2.83-2.71-4.31l-5.89-9.65
							c-2.01-3.3-1-5.26-0.22-6.13c0.78-0.87,2.62-2.1,6.12-0.46l10.25,4.78c1.56,0.72,3.1,1.47,4.59,2.22
							c5.7,2.85,11.55,6.14,17.37,9.76c3.38,2.1,6.78,4.33,10.19,6.68c-1.32-5.06-2.35-10.15-3.1-15.19
							c-1.07-7.09-1.59-14.24-1.53-21.24c0.01-1.81,0.06-3.7,0.16-5.62l0.64-12.47c0.14-2.65,1.35-4.75,3.31-5.75
							c1.97-1.01,4.37-0.75,6.6,0.7l10.47,6.81c1.62,1.04,3.18,2.11,4.65,3.17c5.69,4.06,11.18,8.68,16.29,13.72
							c0.32,0.31,0.63,0.62,0.94,0.94c0.61-1.34,1.26-2.67,1.93-3.98c3.43-6.83,7.66-13.46,12.56-19.69
							c1.24-1.6,2.61-3.27,4.07-4.94l12.61-14.47c0.89-1.03,2.19-1.62,3.55-1.62c1.36,0,2.66,0.59,3.55,1.62l12.61,14.48
							c1.46,1.66,2.83,3.33,4.08,4.95c4.89,6.21,9.12,12.84,12.56,19.68c0.67,1.31,1.31,2.63,1.92,3.97
							c0.31-0.33,0.63-0.64,0.95-0.95c5.1-5.03,10.59-9.65,16.29-13.72c1.46-1.05,3.03-2.12,4.64-3.17l10.46-6.8
							c2.18-1.42,4.58-1.65,6.57-0.63c1.99,1.02,3.21,3.09,3.35,5.68l0.64,12.47c0.1,1.94,0.15,3.83,0.16,5.63
							c0.06,6.99-0.46,14.14-1.53,21.24c-0.75,5.04-1.78,10.12-3.1,15.18c3.41-2.35,6.82-4.58,10.2-6.68
							c5.82-3.63,11.67-6.91,17.37-9.76c1.47-0.74,3.01-1.49,4.59-2.22l10.24-4.78c3.43-1.6,5.27-0.37,6.06,0.52
							C405.88,242.88,406.91,244.84,404.94,248.07z"/>
						<path class="st22" d="M337.26,325.39c-1.57,1.24-3.15,2.46-4.73,3.66c-6.69,5.07-13.47,9.74-20.16,13.89
							c-4.43,2.76-8.87,5.32-13.25,7.65c-0.48,0.25-0.96,0.5-1.44,0.75c-0.9,0.47-1.8,0.92-2.69,1.37
							c-1.44,0.72-2.98,1.47-4.58,2.21c-0.59,0.28-1.15,0.52-1.69,0.72c-0.44,0.18-0.89,0.38-1.3,0.51
							c-1.05,0.45-2.11,0.68-3.31,0.75c-0.18,0.01-0.45,0.01-0.64,0.01c-0.2,0-0.4,0-0.59-0.01c-1.2-0.08-2.34-0.3-3.39-0.76
							c-0.43-0.14-0.88-0.36-1.35-0.54c-0.02,0-0.04-0.01-0.05-0.02c-0.48-0.2-0.99-0.42-1.52-0.66c-1.59-0.74-3.13-1.48-4.59-2.22
							c-0.9-0.45-1.8-0.91-2.71-1.39c-0.49-0.25-0.98-0.5-1.47-0.77c-4.36-2.31-8.78-4.85-13.19-7.6
							c-6.69-4.15-13.48-8.83-20.16-13.89c-1.59-1.21-3.18-2.44-4.76-3.69l6.38-2.62c0.67,0.51,1.34,1.02,2.01,1.53
							c1.84,1.4,3.7,2.77,5.55,4.1c-1.84-2.12-3.62-4.3-5.35-6.54l5.77-2.37c3.12,3.96,6.43,7.72,9.88,11.24
							c-1.15-1.97-2.23-3.95-3.24-5.96c-1.12-2.21-2.17-4.45-3.14-6.72l5.57-2.28c0.9,2.12,1.88,4.22,2.93,6.29
							c3.26,6.5,7.28,12.79,11.93,18.7c1.19,1.54,2.49,3.11,3.87,4.69c0.29,0.33,0.6,0.66,0.92,0.95c0.23,0.23,0.46,0.44,0.7,0.64
							c0.04,0.04,0.09,0.08,0.13,0.11c0.14,0.12,0.27,0.23,0.41,0.34c1.12,0.88,2.35,1.59,3.65,2.12c1.53,0.62,3.16,1.01,4.83,1.12
							c0,0,0.01,0,0.02,0c0.22,0.01,0.44,0.02,0.66,0.02c0.11,0.01,0.21,0.01,0.32,0.01h0.03c0.07,0,0.13,0,0.2-0.01
							c0.36,0,0.72-0.02,1.07-0.05c1.6-0.13,3.15-0.52,4.61-1.13c1.3-0.53,2.53-1.25,3.65-2.13c0.1-0.08,0.21-0.16,0.3-0.25
							c0.04-0.03,0.08-0.07,0.12-0.1c0.27-0.22,0.52-0.46,0.77-0.7c0.31-0.3,0.61-0.61,0.89-0.93c1.38-1.59,2.68-3.16,3.86-4.68
							c4.66-5.93,8.68-12.22,11.94-18.71c1.05-2.06,2.03-4.16,2.93-6.28l5.56,2.28c-0.97,2.27-2.01,4.51-3.14,6.71
							c-1.01,2-2.08,3.99-3.23,5.95c3.44-3.52,6.75-7.27,9.87-11.22l5.76,2.37c-1.71,2.22-3.48,4.39-5.3,6.49
							c1.84-1.32,3.69-2.68,5.52-4.07c0.66-0.5,1.32-1.01,1.98-1.51L337.26,325.39z"/>
					</g>
				</g>
			</g>
		</g>
		<g>
			<g>
				<g>
					<path class="st22" d="M267.76,367.9c-0.8-3.67-3.51-6.63-6.98-8.06l-53.25-22c-1.9-0.78-3.3-2.55-3.41-4.6
						c-0.13-2.36,1.11-4.32,3.25-5.2l53.68-22.05c5.29-2.18,8.25-8.02,6.45-13.91c-0.34-1.12-0.88-2.19-1.58-3.12
						c-2.3-3.07-5.7-4.66-9.15-4.66c-1.48,0-2.97,0.29-4.38,0.89l-81.02,34.18c-4.18,1.77-6.89,5.84-6.89,10.38v6.15
						c0,4.53,2.69,8.6,6.86,10.37l81.02,34.47c1.42,0.6,2.92,0.9,4.41,0.9c2.18,0,4.33-0.63,6.21-1.87
						C266.82,377.23,268.78,372.59,267.76,367.9z M263.67,372.68c-0.37,1.15-1.05,2.2-1.96,3.02c-1.39,1.26-3.14,1.94-4.93,1.94
						c-0.97,0-1.94-0.19-2.86-0.59l-81.02-34.46c-2.68-1.14-4.42-3.77-4.42-6.69v-6.15c0-2.93,1.75-5.55,4.44-6.69l81.02-34.19
						c0.92-0.38,1.87-0.58,2.84-0.58c1.83,0,3.6,0.71,5,2.01c0.89,0.82,1.54,1.86,1.9,3c1.15,3.68-0.63,7.54-4.15,8.99l-53.68,22.05
						c-3.54,1.45-5.74,4.73-5.74,8.56c-0.01,3.83,2.19,7.11,5.72,8.57l53.71,22.19C263.07,365.11,264.84,368.99,263.67,372.68z"/>
				</g>
			</g>
			<g>
				<g>
					<path class="st22" d="M395.57,319.43l-81.02-34.23c-1.42-0.6-2.91-0.9-4.4-0.9c-3.45,0-6.85,1.59-9.15,4.68
						c-0.7,0.94-1.24,2-1.58,3.12c-1.79,5.88,1.17,11.71,6.46,13.89l53.61,22.05c2.14,0.88,3.38,2.84,3.25,5.2
						c-0.11,2.05-1.51,3.82-3.41,4.6l-53.47,22.12c-5.31,2.19-8.26,8.06-6.41,13.96c0.34,1.08,0.86,2.1,1.53,3.01
						c2.29,3.1,5.72,4.7,9.18,4.7c1.49,0,2.99-0.3,4.41-0.9l81.03-34.51c4.15-1.77,6.85-5.85,6.85-10.36v-6.06
						C402.45,325.27,399.75,321.19,395.57,319.43z M398.45,335.85c0,2.92-1.74,5.55-4.43,6.69L313,377.05
						c-0.91,0.39-1.87,0.59-2.85,0.59c-1.8,0-3.55-0.69-4.93-1.95c-0.91-0.82-1.59-1.87-1.96-3.03c-1.18-3.67,0.59-7.55,4.13-9.01
						l53.64-22.18c3.53-1.46,5.72-4.74,5.72-8.57c-0.01-3.82-2.21-7.11-5.74-8.56l-53.61-22.05c-3.52-1.46-5.3-5.32-4.15-8.99
						c0.35-1.12,1.03-2.19,1.91-3c1.37-1.29,3.15-2,4.98-2c0.97,0,1.93,0.19,2.84,0.57l81.03,34.24c2.7,1.15,4.44,3.77,4.44,6.69
						V335.85z"/>
				</g>
			</g>
		</g>
	</g>
</g>
<g id="Layer_2" class="st28">
</g>
</svg>
