<?xml version="1.0" encoding="utf-8"?>
<!-- Generator: Adobe Illustrator 23.0.2, SVG Export Plug-In . SVG Version: 6.00 Build 0)  -->
<svg version="1.1" xmlns="http://www.w3.org/2000/svg" xmlns:xlink="http://www.w3.org/1999/xlink" x="0px" y="0px"
	 viewBox="0 0 566.93 566.93" style="enable-background:new 0 0 566.93 566.93;" xml:space="preserve">
<style type="text/css">
	.st0{fill:#E9E9E9;}
	.st1{fill:#52B2D8;}
	.st2{fill:#D0664E;}
	.st3{fill:#193540;}
	.st4{opacity:0.6;fill:#E9E9E9;}
	.st5{fill:#F1C3CC;stroke:#231F20;stroke-width:2;stroke-linecap:round;stroke-linejoin:round;stroke-miterlimit:10;}
	.st6{fill:#4EA57D;stroke:#231F20;stroke-width:2;}
	.st7{fill:none;stroke:#231F20;stroke-linecap:round;stroke-linejoin:round;stroke-miterlimit:10;}
	.st8{fill:none;stroke:#231F20;stroke-width:0.8894;stroke-miterlimit:10;}
	.st9{fill:none;stroke:#231F20;stroke-width:0.5;stroke-miterlimit:10;}
	.st10{fill:#FFFFFF;stroke:#231F20;stroke-width:0.5;stroke-miterlimit:10;}
	.st11{fill:#FFFFFF;stroke:#231F20;stroke-width:0.5;stroke-linecap:round;stroke-linejoin:round;stroke-miterlimit:10;}
	.st12{fill:#FFFFFF;stroke:#231F20;stroke-width:0.4882;stroke-miterlimit:10;}
	.st13{fill:none;stroke:#000000;}
	.st14{fill:none;stroke:#000000;stroke-linecap:round;stroke-linejoin:round;stroke-miterlimit:10;}
	.st15{fill:#4EA57D;}
	.st16{fill:#14563E;}
	.st17{fill:#F1C3CC;}
	.st18{fill:#231F20;}
	.st19{fill:none;stroke:#3A3A3A;stroke-width:6;stroke-linecap:round;stroke-linejoin:round;stroke-miterlimit:10;}
	.st20{fill:#F1C3CC;stroke:#231F20;stroke-width:6;stroke-linecap:round;stroke-linejoin:round;stroke-miterlimit:10;}
	.st21{fill:#4EA57D;stroke:#231F20;stroke-width:6;}
	.st22{fill:#3A3A3A;}
	.st23{fill:#F1C3CC;stroke:#E1E1E1;stroke-width:2;stroke-linecap:round;stroke-linejoin:round;stroke-miterlimit:10;}
	.st24{fill:#4EA57D;stroke:#E1E1E1;stroke-width:2;}
	.st25{fill:#F1C3CC;stroke:#231F20;stroke-width:5.3758;stroke-linecap:round;stroke-linejoin:round;stroke-miterlimit:10;}
	.st26{fill:#4EA57D;stroke:#231F20;stroke-width:6.3262;}
	.st27{fill:#E1E1E1;}
	.st28{display:none;}
	.st29{display:inline;opacity:0.5;}
	.st30{display:inline;}
	.st31{fill:#4EA57D;stroke:#E1E1E1;stroke-width:6;}
</style>
<g id="Background">
</g>
<g id="Layer_1">
	<g>
		<g>
			<path class="st22" d="M213.98,278.39c2.13,6.11,4.67,12.17,7.56,18.05l-19.08,8.05c-1.4-1.43-2.79-2.86-4.15-4.29
				c-5.77-6.08-11.17-12.29-16.04-18.48c-4.24-5.37-8.16-10.83-11.63-16.19c-0.9-1.39-1.82-2.85-2.71-4.31l-5.88-9.65
				c-2.02-3.29-1.01-5.26-0.22-6.14c0.78-0.87,2.61-2.08,6.12-0.45l10.24,4.77c1.58,0.74,3.13,1.49,4.59,2.23
				c5.7,2.84,11.55,6.13,17.37,9.76c3.6,2.24,7.23,4.62,10.86,7.15c0.42,1.55,0.88,3.09,1.37,4.64v0.01
				c0.22,0.75,0.46,1.49,0.7,2.21C213.37,276.63,213.67,277.51,213.98,278.39z"/>
			<path class="st22" d="M404.94,251.57l-5.88,9.66c-0.9,1.47-1.82,2.93-2.72,4.31c-3.46,5.34-7.38,10.79-11.63,16.19
				c-4.87,6.19-10.26,12.4-16.04,18.47c-1.37,1.45-2.77,2.89-4.19,4.33l-19.05-8.05c2.9-5.89,5.44-11.96,7.58-18.09
				c0.31-0.88,0.61-1.76,0.9-2.64c0.24-0.74,0.48-1.47,0.7-2.21c0,0,0.01,0,0.01-0.01v-0.02c0.48-1.53,0.94-3.08,1.36-4.63
				c3.63-2.52,7.26-4.91,10.86-7.15c5.82-3.62,11.67-6.91,17.38-9.75c1.46-0.75,3-1.5,4.58-2.23l10.24-4.77
				c3.44-1.61,5.27-0.37,6.06,0.51C405.89,246.37,406.92,248.33,404.94,251.57z"/>
			<path class="st22" d="M241.66,252.18c-1.9,8.08-2.86,16.39-2.86,24.69c0,4.01,0.23,8.02,0.68,12l-12.4,5.23
				c-1.42-2.85-2.75-5.75-3.97-8.67c-0.78-1.85-1.53-3.7-2.23-5.57c-0.08-0.21-0.15-0.42-0.23-0.63c-1.11-3.02-3.06-5.68-5.69-7.55
				c-0.01-0.01-0.03-0.02-0.04-0.03c-1.3-0.94-2.6-1.87-3.91-2.77c-1.64-5.86-2.9-11.78-3.76-17.66c-1.08-7.1-1.59-14.25-1.53-21.25
				c0-1.78,0.06-3.68,0.16-5.62l0.64-12.47c0.13-2.65,1.34-4.75,3.31-5.75c1.96-1,4.37-0.75,6.6,0.71l10.47,6.81
				c1.61,1.03,3.18,2.1,4.65,3.17c5.69,4.05,11.17,8.67,16.29,13.71c0.32,0.32,0.63,0.63,0.94,0.94c-0.45,0.99-0.88,1.96-1.3,2.94
				v0.01c-0.43,1-0.84,2.01-1.23,3.04C244.36,242.28,242.83,247.19,241.66,252.18z"/>
			<path class="st22" d="M253.95,332.22c-4.17-4.26-8.12-8.86-11.81-13.73l4.28-1.76c1.27,3.23,2.7,6.41,4.28,9.5
				C251.71,328.25,252.79,330.24,253.95,332.22z"/>
			<path class="st22" d="M324.83,318.52c-3.68,4.86-7.62,9.44-11.78,13.68c1.15-1.96,2.22-3.95,3.23-5.96
				c1.58-3.1,3.01-6.26,4.28-9.48L324.83,318.52z"/>
			<path class="st22" d="M341.57,325.41c-2.99,2.45-6.01,4.83-9.04,7.13c-6.68,5.07-13.46,9.75-20.16,13.89
				c-5.81,3.62-11.66,6.92-17.37,9.77c-1.49,0.75-3.03,1.49-4.59,2.22c-1.72,0.81-3.21,1.31-4.51,1.56
				c-0.64,0.21-1.39,0.34-2.27,0.34c-1.78,0-4.08-0.52-7.06-1.9c-1.56-0.73-3.11-1.48-4.59-2.23c-5.7-2.84-11.55-6.14-17.37-9.76
				c-6.68-4.14-13.47-8.82-20.15-13.89c-3.05-2.31-6.08-4.7-9.08-7.16l11.03-4.54c1.28,1.73,2.6,3.44,3.94,5.1
				c4.88,6.05,10.73,11.25,17.34,15.34c0.03,0.02,0.06,0.03,0.09,0.05c1.22,0.77,2.44,1.52,3.66,2.23c-0.18-0.25-0.37-0.5-0.55-0.75
				c-2.52-3.43-4.85-6.96-6.94-10.59c0.66,0.66,1.32,1.32,1.98,1.97c2.32,2.29,4.71,4.48,7.17,6.56c2.73,2.32,5.54,4.51,8.41,6.56
				c0.82,0.6,1.68,1.19,2.55,1.77c-0.02-0.04-0.03-0.07-0.04-0.1c-0.78-0.62-1.51-1.31-2.17-2.06c-1.38-1.59-2.68-3.16-3.87-4.69
				c-4.65-5.92-8.66-12.2-11.93-18.7c-1.51-2.96-2.87-5.99-4.08-9.08l10.22-4.2c2.61-1.06,4.84-2.88,6.43-5.25
				c2.22-3.31,2.96-7.39,2-11.39c-1.43-5.95-6.71-10.34-12.81-10.79c-2.26-0.16-4.48,0.2-6.58,1.09l-5.97,2.52
				c-0.31-3.18-0.46-6.37-0.46-9.56c0-7.83,0.91-15.69,2.7-23.32c0.88-3.76,1.99-7.49,3.3-11.14c0.38-1.08,0.78-2.13,1.2-3.18
				c0.02-0.06,0.05-0.13,0.07-0.19c0.7-1.8,0.34-3.84-1.01-5.22c0-0.01-0.01-0.02-0.02-0.03c0,0,0,0-0.01,0
				c-0.73-0.79-1.49-1.56-2.25-2.31c0.61-1.34,1.25-2.66,1.92-3.98c3.44-6.83,7.67-13.46,12.56-19.69c1.24-1.58,2.61-3.26,4.08-4.93
				l12.6-14.47c0.9-1.04,2.19-1.62,3.55-1.62c1.37,0,2.66,0.58,3.56,1.62l12.61,14.47c1.45,1.67,2.83,3.35,4.08,4.95
				c4.88,6.21,9.11,12.84,12.55,19.68c0.67,1.31,1.31,2.65,1.92,3.98c-0.77,0.75-1.52,1.52-2.25,2.3c-0.01,0-0.01,0-0.01,0
				c-0.01,0.01-0.02,0.02-0.02,0.03c-1.35,1.38-1.71,3.42-1.01,5.22c0.02,0.06,0.05,0.13,0.07,0.19c0.42,1.05,0.82,2.1,1.2,3.18
				c1.32,3.65,2.41,7.38,3.3,11.14c1.79,7.63,2.7,15.49,2.7,23.32c0,3.2-0.15,6.4-0.46,9.59l-6.02-2.54
				c-2.24-0.94-4.61-1.3-7.02-1.05c-6.34,0.65-11.61,5.58-12.61,11.87c-1.06,6.72,2.58,13.01,8.66,15.51l10.27,4.23
				c-1.21,3.08-2.57,6.1-4.08,9.06c-3.26,6.49-7.27,12.77-11.93,18.7c-1.18,1.52-2.48,3.09-3.87,4.68
				c-0.64,0.74-1.33,1.39-2.08,1.99c-0.02,0.04-0.03,0.08-0.04,0.13c0.85-0.57,1.67-1.15,2.46-1.72c2.87-2.04,5.69-4.24,8.42-6.57
				c2.46-2.08,4.85-4.27,7.16-6.55c0.67-0.66,1.34-1.32,2-2c-2.1,3.63-4.42,7.17-6.96,10.61c-0.17,0.25-0.36,0.5-0.55,0.75
				c1.22-0.71,2.44-1.45,3.66-2.21c0.03-0.02,0.06-0.04,0.09-0.05c6.45-4,12.2-9.04,16.99-14.92c1.46-1.8,2.89-3.63,4.28-5.51
				L341.57,325.41z"/>
			<path class="st22" d="M361.27,230c0.06,6.98-0.45,14.13-1.53,21.23c-0.86,5.88-2.12,11.78-3.76,17.65
				c-1.3,0.91-2.61,1.82-3.91,2.76l-0.04,0.03c-2.58,1.85-4.54,4.43-5.63,7.41c-0.09,0.26-0.19,0.52-0.29,0.78
				c-0.7,1.87-1.45,3.72-2.23,5.57c-1.23,2.94-2.57,5.84-4,8.71l-12.37-5.23c0.45-4,0.68-8.01,0.68-12.04
				c0-8.3-0.96-16.61-2.86-24.69c-1.17-5-2.7-9.92-4.59-14.73c-0.39-1.01-0.8-2.02-1.23-3.02c-0.42-0.99-0.85-1.96-1.3-2.94
				c0.3-0.32,0.63-0.63,0.95-0.95c5.11-5.04,10.59-9.66,16.29-13.72c1.45-1.04,3.02-2.12,4.65-3.16l10.46-6.81
				c2.18-1.43,4.57-1.65,6.56-0.63c2,1.01,3.22,3.08,3.35,5.67l0.64,12.48C361.21,226.28,361.27,228.17,361.27,230z"/>
		</g>
		<g>
			<g>
				<path class="st22" d="M167.48,337.4v-6.15c0-3.32,1.99-6.32,5.05-7.61l81.02-34.19c5.45-2.3,11.48,1.7,11.48,7.61v0
					c0,3.35-2.02,6.37-5.12,7.64l-53.68,22.05c-6.82,2.8-6.83,12.46-0.01,15.28l53.71,22.19c3.09,1.28,5.11,4.29,5.11,7.64l0,0
					c0,5.92-6.05,9.92-11.5,7.6L172.51,345C169.46,343.71,167.48,340.71,167.48,337.4z"/>
			</g>
			<g>
				<path class="st22" d="M394.42,344.95l-81.02,34.51c-5.45,2.32-11.5-1.68-11.5-7.6l0,0c0-3.34,2.01-6.36,5.1-7.64l53.64-22.19
					c6.81-2.82,6.8-12.47-0.01-15.28l-53.61-22.06c-3.1-1.27-5.12-4.29-5.12-7.64v0c0-5.91,6.03-9.91,11.48-7.61l81.02,34.23
					c3.06,1.29,5.05,4.29,5.05,7.61v6.06C399.45,340.66,397.47,343.65,394.42,344.95z"/>
			</g>
		</g>
	</g>
</g>
<g id="Layer_2" class="st28">
</g>
</svg>
