<svg width="19" height="17" viewBox="0 0 19 17" fill="none" xmlns="http://www.w3.org/2000/svg">
<path d="M6.92747 13.7169C6.92747 13.6472 6.85496 13.5776 6.74619 13.5776C6.63742 13.5776 6.5649 13.6472 6.5649 13.7169C6.5649 13.7865 6.63742 13.8561 6.74619 13.8213C6.85496 13.8213 6.92747 13.7865 6.92747 13.7169ZM5.80351 13.5428C5.80351 13.6124 5.87602 13.7169 5.98479 13.7169C6.0573 13.7517 6.16608 13.7169 6.20233 13.6472C6.20233 13.5776 6.16608 13.508 6.0573 13.4732C5.94853 13.4384 5.83976 13.4732 5.80351 13.5428ZM7.43507 13.508C7.3263 13.508 7.25379 13.5776 7.25379 13.682C7.25379 13.7517 7.36256 13.7865 7.47133 13.7517C7.5801 13.7169 7.65261 13.682 7.61636 13.6124C7.61636 13.5428 7.50759 13.4732 7.43507 13.508ZM9.79178 0.140503C4.78831 0.140503 0.945068 3.83049 0.945068 8.63443C0.945068 12.4985 3.4468 15.8055 7.0725 16.9891C7.54384 17.0587 7.68887 16.7802 7.68887 16.5714C7.68887 16.3277 7.68887 15.1441 7.68887 14.4131C7.68887 14.4131 5.15088 14.9352 4.60703 13.3687C4.60703 13.3687 4.2082 12.3592 3.62809 12.1155C3.62809 12.1155 2.79418 11.5586 3.66434 11.5586C3.66434 11.5586 4.57077 11.6282 5.07837 12.4637C5.87602 13.8213 7.18127 13.4384 7.72513 13.1947C7.79764 12.6377 8.01518 12.2548 8.30524 12.0111C6.27485 11.8022 4.2082 11.5238 4.2082 8.18188C4.2082 7.20717 4.49825 6.75462 5.07837 6.12802C4.96959 5.88434 4.67954 4.97925 5.18714 3.76086C5.91228 3.552 7.68887 4.70076 7.68887 4.70076C8.41401 4.4919 9.17541 4.42228 9.9368 4.42228C10.7345 4.42228 11.4959 4.4919 12.221 4.70076C12.221 4.70076 13.9613 3.51719 14.7227 3.76086C15.2303 4.97925 14.904 5.88434 14.8315 6.12802C15.4116 6.75462 15.7742 7.20717 15.7742 8.18188C15.7742 11.5238 13.635 11.8022 11.6046 12.0111C11.9309 12.2896 12.221 12.8118 12.221 13.6472C12.221 14.796 12.1847 16.2581 12.1847 16.5366C12.1847 16.7802 12.366 17.0587 12.8374 16.9543C16.4631 15.8055 18.9285 12.4985 18.9285 8.63443C18.9285 3.83049 14.8315 0.140503 9.79178 0.140503ZM4.462 12.1504C4.38948 12.1852 4.42574 12.2896 4.462 12.3592C4.53451 12.394 4.60703 12.4288 4.67954 12.394C4.7158 12.3592 4.7158 12.2548 4.64328 12.1852C4.57077 12.1504 4.49825 12.1155 4.462 12.1504ZM4.06317 11.8719C4.02691 11.9415 4.06317 11.9763 4.13568 12.0111C4.2082 12.0459 4.28071 12.0459 4.31697 11.9763C4.31697 11.9415 4.28071 11.9067 4.2082 11.8719C4.13568 11.8371 4.09943 11.8371 4.06317 11.8719ZM5.22339 13.1251C5.18714 13.1599 5.18714 13.2643 5.29591 13.3339C5.36842 13.4036 5.47719 13.4384 5.51345 13.3687C5.54971 13.3339 5.54971 13.2295 5.47719 13.1599C5.40468 13.0903 5.29591 13.0554 5.22339 13.1251ZM4.82457 12.6029C4.75205 12.6377 4.75205 12.7421 4.82457 12.8118C4.89708 12.8814 4.96959 12.9162 5.04211 12.8814C5.07837 12.8466 5.07837 12.7421 5.04211 12.6725C4.96959 12.6029 4.89708 12.5681 4.82457 12.6029Z" fill="white"/>
</svg>
