<svg width="19" height="17" viewBox="0 0 19 17" fill="none" xmlns="http://www.w3.org/2000/svg">
<path d="M6.92723 13.717C6.92723 13.6474 6.85471 13.5777 6.74594 13.5777C6.63717 13.5777 6.56466 13.6474 6.56466 13.717C6.56466 13.7866 6.63717 13.8562 6.74594 13.8214C6.85471 13.8214 6.92723 13.7866 6.92723 13.717ZM5.80326 13.5429C5.80326 13.6125 5.87578 13.717 5.98455 13.717C6.05706 13.7518 6.16583 13.717 6.20209 13.6474C6.20209 13.5777 6.16583 13.5081 6.05706 13.4733C5.94829 13.4385 5.83952 13.4733 5.80326 13.5429ZM7.43483 13.5081C7.32606 13.5081 7.25354 13.5777 7.25354 13.6822C7.25354 13.7518 7.36231 13.7866 7.47108 13.7518C7.57985 13.717 7.65237 13.6822 7.61611 13.6125C7.61611 13.5429 7.50734 13.4733 7.43483 13.5081ZM9.79153 0.140625C4.78807 0.140625 0.944824 3.83061 0.944824 8.63455C0.944824 12.4986 3.44656 15.8056 7.07226 16.9892C7.5436 17.0588 7.68863 16.7804 7.68863 16.5715C7.68863 16.3278 7.68863 15.1442 7.68863 14.4132C7.68863 14.4132 5.15064 14.9354 4.60678 13.3689C4.60678 13.3689 4.20795 12.3593 3.62784 12.1157C3.62784 12.1157 2.79393 11.5587 3.6641 11.5587C3.6641 11.5587 4.57052 11.6283 5.07812 12.4638C5.87578 13.8214 7.18103 13.4385 7.72488 13.1948C7.7974 12.6378 8.01494 12.2549 8.30499 12.0112C6.2746 11.8024 4.20795 11.5239 4.20795 8.182C4.20795 7.20729 4.49801 6.75475 5.07812 6.12814C4.96935 5.88447 4.6793 4.97938 5.18689 3.76099C5.91203 3.55212 7.68863 4.70089 7.68863 4.70089C8.41377 4.49202 9.17516 4.4224 9.93656 4.4224C10.7342 4.4224 11.4956 4.49202 12.2208 4.70089C12.2208 4.70089 13.9611 3.51731 14.7225 3.76099C15.2301 4.97938 14.9038 5.88447 14.8313 6.12814C15.4114 6.75475 15.7739 7.20729 15.7739 8.182C15.7739 11.5239 13.6348 11.8024 11.6044 12.0112C11.9307 12.2897 12.2208 12.8119 12.2208 13.6474C12.2208 14.7961 12.1845 16.2582 12.1845 16.5367C12.1845 16.7804 12.3658 17.0588 12.8371 16.9544C16.4628 15.8056 18.9283 12.4986 18.9283 8.63455C18.9283 3.83061 14.8313 0.140625 9.79153 0.140625ZM4.46175 12.1505C4.38924 12.1853 4.4255 12.2897 4.46175 12.3593C4.53427 12.3942 4.60678 12.429 4.6793 12.3942C4.71555 12.3593 4.71555 12.2549 4.64304 12.1853C4.57052 12.1505 4.49801 12.1157 4.46175 12.1505ZM4.06293 11.872C4.02667 11.9416 4.06293 11.9764 4.13544 12.0112C4.20795 12.046 4.28047 12.046 4.31673 11.9764C4.31673 11.9416 4.28047 11.9068 4.20795 11.872C4.13544 11.8372 4.09918 11.8372 4.06293 11.872ZM5.22315 13.1252C5.18689 13.16 5.18689 13.2644 5.29566 13.3341C5.36818 13.4037 5.47695 13.4385 5.51321 13.3689C5.54946 13.3341 5.54946 13.2296 5.47695 13.16C5.40444 13.0904 5.29566 13.0556 5.22315 13.1252ZM4.82432 12.603C4.75181 12.6378 4.75181 12.7423 4.82432 12.8119C4.89684 12.8815 4.96935 12.9163 5.04186 12.8815C5.07812 12.8467 5.07812 12.7423 5.04186 12.6726C4.96935 12.603 4.89684 12.5682 4.82432 12.603Z" fill="#000958"/>
</svg>