<svg width="18" height="17" viewBox="0 0 18 17" fill="none" xmlns="http://www.w3.org/2000/svg">
<path d="M9.04647 4.22366C6.63797 4.22366 4.71869 6.18057 4.71869 8.55144C4.71869 10.9599 6.63797 12.8792 9.04647 12.8792C11.4173 12.8792 13.3742 10.9599 13.3742 8.55144C13.3742 6.18057 11.4173 4.22366 9.04647 4.22366ZM9.04647 11.3739C7.50352 11.3739 6.22401 10.132 6.22401 8.55144C6.22401 7.00849 7.46589 5.76661 9.04647 5.76661C10.5894 5.76661 11.8313 7.00849 11.8313 8.55144C11.8313 10.132 10.5894 11.3739 9.04647 11.3739ZM14.5409 4.07313C14.5409 3.50864 14.0893 3.05705 13.5248 3.05705C12.9603 3.05705 12.5087 3.50864 12.5087 4.07313C12.5087 4.63763 12.9603 5.08922 13.5248 5.08922C14.0893 5.08922 14.5409 4.63763 14.5409 4.07313ZM17.401 5.08922C17.3257 3.73444 17.0246 2.53019 16.0462 1.55173C15.0677 0.57328 13.8635 0.272218 12.5087 0.196952C11.1163 0.121687 6.93903 0.121687 5.54662 0.196952C4.19184 0.272218 3.02522 0.57328 2.00913 1.55173C1.03068 2.53019 0.729615 3.73444 0.65435 5.08922C0.579084 6.48163 0.579084 10.6589 0.65435 12.0513C0.729615 13.4061 1.03068 14.5727 2.00913 15.5888C3.02522 16.5672 4.19184 16.8683 5.54662 16.9436C6.93903 17.0188 11.1163 17.0188 12.5087 16.9436C13.8635 16.8683 15.0677 16.5672 16.0462 15.5888C17.0246 14.5727 17.3257 13.4061 17.401 12.0513C17.4762 10.6589 17.4762 6.48163 17.401 5.08922ZM15.5946 13.519C15.3312 14.2716 14.729 14.8361 14.014 15.1372C12.885 15.5888 10.2507 15.4759 9.04647 15.4759C7.80459 15.4759 5.17029 15.5888 4.07894 15.1372C3.32628 14.8361 2.76179 14.2716 2.46073 13.519C2.00913 12.4276 2.12203 9.79332 2.12203 8.55144C2.12203 7.34719 2.00913 4.71289 2.46073 3.58391C2.76179 2.86888 3.32628 2.30439 4.07894 2.00333C5.17029 1.55173 7.80459 1.66463 9.04647 1.66463C10.2507 1.66463 12.885 1.55173 14.014 2.00333C14.729 2.26676 15.2935 2.86888 15.5946 3.58391C16.0462 4.71289 15.9333 7.34719 15.9333 8.55144C15.9333 9.79332 16.0462 12.4276 15.5946 13.519Z" fill="white"/>
</svg>
