<svg width="18" height="17" viewBox="0 0 18 17" fill="none" xmlns="http://www.w3.org/2000/svg">
<path d="M9.04623 4.22379C6.63772 4.22379 4.71845 6.18069 4.71845 8.55156C4.71845 10.9601 6.63772 12.8793 9.04623 12.8793C11.4171 12.8793 13.374 10.9601 13.374 8.55156C13.374 6.18069 11.4171 4.22379 9.04623 4.22379ZM9.04623 11.374C7.50328 11.374 6.22376 10.1321 6.22376 8.55156C6.22376 7.00862 7.46565 5.76673 9.04623 5.76673C10.5892 5.76673 11.8311 7.00862 11.8311 8.55156C11.8311 10.1321 10.5892 11.374 9.04623 11.374ZM14.5406 4.07326C14.5406 3.50876 14.089 3.05717 13.5245 3.05717C12.96 3.05717 12.5084 3.50876 12.5084 4.07326C12.5084 4.63775 12.96 5.08934 13.5245 5.08934C14.089 5.08934 14.5406 4.63775 14.5406 4.07326ZM17.4007 5.08934C17.3254 3.73456 17.0244 2.53031 16.0459 1.55186C15.0675 0.573402 13.8632 0.27234 12.5084 0.197074C11.116 0.121809 6.93879 0.121809 5.54637 0.197074C4.19159 0.27234 3.02497 0.573402 2.00889 1.55186C1.03043 2.53031 0.729371 3.73456 0.654105 5.08934C0.57884 6.48176 0.57884 10.659 0.654105 12.0514C0.729371 13.4062 1.03043 14.5728 2.00889 15.5889C3.02497 16.5674 4.19159 16.8684 5.54637 16.9437C6.93879 17.0189 11.116 17.0189 12.5084 16.9437C13.8632 16.8684 15.0675 16.5674 16.0459 15.5889C17.0244 14.5728 17.3254 13.4062 17.4007 12.0514C17.476 10.659 17.476 6.48176 17.4007 5.08934ZM15.5943 13.5191C15.3309 14.2718 14.7288 14.8362 14.0138 15.1373C12.8848 15.5889 10.2505 15.476 9.04623 15.476C7.80434 15.476 5.17004 15.5889 4.07869 15.1373C3.32604 14.8362 2.76154 14.2718 2.46048 13.5191C2.00889 12.4277 2.12179 9.79344 2.12179 8.55156C2.12179 7.34731 2.00889 4.71301 2.46048 3.58403C2.76154 2.869 3.32604 2.30451 4.07869 2.00345C5.17004 1.55186 7.80434 1.66475 9.04623 1.66475C10.2505 1.66475 12.8848 1.55186 14.0138 2.00345C14.7288 2.26688 15.2933 2.869 15.5943 3.58403C16.0459 4.71301 15.933 7.34731 15.933 8.55156C15.933 9.79344 16.0459 12.4277 15.5943 13.5191Z" fill="#000958"/>
</svg>