<svg width="18" height="17" viewBox="0 0 18 17" fill="none" xmlns="http://www.w3.org/2000/svg">
<path d="M4.01401 17V5.72262H0.514162V17H4.01401ZM2.24527 4.21394C3.37426 4.21394 4.27744 3.27102 4.27744 2.1395C4.27744 1.04571 3.37426 0.140503 2.24527 0.140503C1.15392 0.140503 0.250732 1.04571 0.250732 2.1395C0.250732 3.27102 1.15392 4.21394 2.24527 4.21394ZM17.0726 17H17.1102V10.8144C17.1102 7.79706 16.4328 5.4586 12.8954 5.4586C11.2019 5.4586 10.0729 6.40153 9.58367 7.26902H9.54604V5.72262H6.19672V17H9.69657V11.4179C9.69657 9.94693 9.96 8.5514 11.7664 8.5514C13.5728 8.5514 13.6104 10.2109 13.6104 11.531V17H17.0726Z" fill="white"/>
</svg>
