<svg width="18" height="17" viewBox="0 0 18 17" fill="none" xmlns="http://www.w3.org/2000/svg">
<path d="M4.01426 17.0001V5.72274H0.514406V17.0001H4.01426ZM2.24552 4.21406C3.3745 4.21406 4.27769 3.27114 4.27769 2.13963C4.27769 1.04583 3.3745 0.140625 2.24552 0.140625C1.15416 0.140625 0.250977 1.04583 0.250977 2.13963C0.250977 3.27114 1.15416 4.21406 2.24552 4.21406ZM17.0728 17.0001H17.1105V10.8145C17.1105 7.79718 16.4331 5.45872 12.8956 5.45872C11.2021 5.45872 10.0731 6.40165 9.58392 7.26914H9.54628V5.72274H6.19696V17.0001H9.69682V11.418C9.69682 9.94705 9.96025 8.55152 11.7666 8.55152C13.573 8.55152 13.6106 10.2111 13.6106 11.5312V17.0001H17.0728Z" fill="#000958"/>
</svg>